<?xml version="1.0" encoding="utf-8"?>
<!-- Generator: Adobe Illustrator 24.2.0, SVG Export Plug-In . SVG Version: 6.00 Build 0)  -->
<svg version="1.1" id="Laag_1" xmlns:sketchjs="https://sketch.io/dtd/"
	 xmlns="http://www.w3.org/2000/svg" xmlns:xlink="http://www.w3.org/1999/xlink" x="0px" y="0px" viewBox="0 0 62.8 62.8"
	 style="enable-background:new 0 0 62.8 62.8;" xml:space="preserve">
<style type="text/css">
	.st0{fill:#F0C410;}
	.st1{fill:#656565;}
	.st2{fill:#F8E491;stroke:#FFFFFF;stroke-width:0.75;stroke-linecap:round;stroke-linejoin:round;stroke-miterlimit:10;}
	.st3{fill:#FEFAE9;}
</style>
<path class="st0" d="M31.4,2c16.2,0,29.4,13.2,29.4,29.4S47.6,60.8,31.4,60.8S2,47.6,2,31.4C2,15.2,15.2,2,31.4,2"/>
<path class="st1" d="M31.4,62.8C14.2,62.8,0,48.8,0,31.4S14,0,31.4,0s31.4,14,31.4,31.4S48.6,62.8,31.4,62.8z M31.4,4
	C16.4,4,4,16.2,4,31.4c0,15,12.2,27.4,27.4,27.4s27.4-12.2,27.4-27.4C58.6,16.4,46.4,4,31.4,4z"/>
<path class="st2" d="M32,40c-4.4,0-8-3.6-8-8s3.6-8,8-8s8,3.6,8,8C40,36.4,36.4,40,32,40 M31.8,12.4L15,22.2v19.4l16.8,9.8l16.8-9.8
	V22.2L31.8,12.4"/>
<path class="st3" d="M32,24c-4.4,0-8,3.6-8,8s3.6,8,8,8s8-3.6,8-8S36.4,24,32,24"/>
</svg>
