<?xml version="1.0" encoding="utf-8"?>
<!-- Generator: Adobe Illustrator 23.1.1, SVG Export Plug-In . SVG Version: 6.00 Build 0)  -->
<svg version="1.1" id="Laag_1" xmlns:sketchjs="https://sketch.io/dtd/"
	 xmlns="http://www.w3.org/2000/svg" xmlns:xlink="http://www.w3.org/1999/xlink" x="0px" y="0px" viewBox="0 0 261.6 109.9"
	 style="enable-background:new 0 0 261.6 109.9;" xml:space="preserve">
<style type="text/css">
	.st0{fill:#656565;}
	.st1{fill:#F0C410;}
	.st2{fill:#F8E491;}
	.st3{fill:#FFFFFF;}
	.st4{fill:#FEFAE9;}
	.st5{fill:#999999;}
	.st6{fill:#4C4C4C;}
	.st7{fill-rule:evenodd;clip-rule:evenodd;fill:#F0C410;}
	.st8{fill:url(#SVGID_3_);}
	.st9{fill:url(#SVGID_4_);}
	.st10{fill:url(#SVGID_9_);}
</style>
<path class="st0" d="M1,41.2c0-1,0.1-2,0.4-2.9s0.7-1.7,1.2-2.4s1.1-1.2,1.7-1.6c0.7-0.4,1.4-0.6,2.1-0.6h23.4v5H8v34.4h15.1V52.3
	H30l-0.1,29.3c0,1-0.1,1.9-0.4,2.8c-0.3,0.9-0.7,1.7-1.2,2.3c-0.5,0.7-1.1,1.2-1.7,1.6c-0.7,0.4-1.4,0.6-2.1,0.6h-1.5V78.1H6.5
	c-0.8,0-1.5-0.2-2.1-0.6c-0.7-0.4-1.2-0.9-1.7-1.6c-0.5-0.7-0.9-1.4-1.2-2.3C1.1,72.7,1,71.8,1,70.7V41.2z"/>
<path class="st0" d="M46.9,73.1V47.5h-7v23.2c0,1,0.1,2,0.4,2.9s0.7,1.7,1.2,2.4c0.5,0.7,1.1,1.2,1.8,1.6c0.7,0.4,1.4,0.6,2.2,0.6
	h2.6c0.6,0,1.3-0.1,1.8-0.4s1.1-0.6,1.6-1.1c0.5-0.4,0.8-1,1.1-1.6c0.3-0.6,0.5-1.3,0.5-1.9H46.9z"/>
<path class="st0" d="M59,47.5h7v11.8l7.1-9.5c0.6-0.7,1.3-1.3,1.9-1.7s1.5-0.6,2.5-0.6c0.8,0,1.5,0.2,2.2,0.6
	c0.7,0.4,1.3,0.9,1.9,1.6c0.5,0.7,1,1.5,1.3,2.4s0.5,1.9,0.5,2.9v3.3l6.2-8.5c0.6-0.7,1.3-1.3,2.1-1.7c0.8-0.4,1.7-0.6,2.6-0.6
	c0.8,0,1.5,0.2,2.2,0.6c0.7,0.4,1.3,0.9,1.9,1.6c0.5,0.7,1,1.5,1.3,2.4c0.3,0.9,0.5,1.9,0.5,2.9v18.2h5.2c-0.1,0.7-0.3,1.3-0.6,1.9
	c-0.3,0.6-0.7,1.1-1.1,1.6c-0.5,0.4-1,0.8-1.6,1.1s-1.2,0.4-1.8,0.4h-1.6c-0.8,0-1.5-0.2-2.2-0.6s-1.3-0.9-1.7-1.6
	c-0.5-0.7-0.9-1.5-1.2-2.4c-0.3-0.9-0.4-1.9-0.4-2.9V53.1l-9.8,11.9v13.2h-7v-25L66,66v12.2h-7V47.5z"/>
<path class="st0" d="M112.2,47.5h7v11.8l7.1-9.5c0.6-0.7,1.3-1.3,1.9-1.7c0.7-0.4,1.5-0.6,2.5-0.6c0.8,0,1.5,0.2,2.2,0.6
	s1.3,0.9,1.9,1.6s1,1.5,1.3,2.4s0.5,1.9,0.5,2.9v3.3l6.2-8.5c0.6-0.7,1.3-1.3,2.1-1.7s1.7-0.6,2.6-0.6c0.8,0,1.5,0.2,2.2,0.6
	s1.3,0.9,1.9,1.6s1,1.5,1.3,2.4c0.3,0.9,0.5,1.9,0.5,2.9v18.2h5.2c-0.1,0.7-0.3,1.3-0.6,1.9s-0.7,1.1-1.1,1.6s-1,0.8-1.6,1.1
	s-1.2,0.4-1.8,0.4h-1.6c-0.8,0-1.5-0.2-2.2-0.6s-1.3-0.9-1.7-1.6s-0.9-1.5-1.2-2.4s-0.4-1.9-0.4-2.9V53.1l-9.8,11.9v13.2h-7v-25
	L119.2,66v12.2h-7V47.5z"/>
<path class="st0" d="M171.3,47.5h-7v23.2c0,1,0.1,2,0.4,2.9c0.3,0.9,0.7,1.7,1.2,2.4c0.5,0.7,1.1,1.2,1.8,1.6
	c0.7,0.4,1.4,0.6,2.2,0.6h2.6c0.6,0,1.3-0.1,1.8-0.4c0.6-0.3,1.1-0.6,1.6-1.1c0.5-0.4,0.8-1,1.1-1.6c0.3-0.6,0.5-1.3,0.5-1.9h-6.3
	V47.5"/>
<path class="st1" d="M50.9,14.2c8.1,0,14.7,6.6,14.7,14.7c0,8.1-6.6,14.7-14.7,14.7c-8.1,0-14.7-6.6-14.7-14.7
	C36.2,20.8,42.8,14.2,50.9,14.2"/>
<path class="st0" d="M50.9,44.6c-8.6,0-15.7-7-15.7-15.7s7-15.7,15.7-15.7s15.7,7,15.7,15.7S59.5,44.6,50.9,44.6z M50.9,15.2
	c-7.5,0-13.7,6.1-13.7,13.7c0,7.5,6.1,13.7,13.7,13.7s13.7-6.1,13.7-13.7C64.5,21.4,58.4,15.2,50.9,15.2z"/>
<path class="st2" d="M51.2,33.2c-2.2,0-4-1.8-4-4c0-2.2,1.8-4,4-4c2.2,0,4,1.8,4,4C55.2,31.4,53.4,33.2,51.2,33.2 M51.1,19.4
	l-8.4,4.9v9.7l8.4,4.9l8.4-4.9v-9.7L51.1,19.4"/>
<path class="st3" d="M51.1,39.1l-8.7-5v-10l8.7-5l8.7,5v10L51.1,39.1 M42.6,33.9l8.4,4.9l8.4-4.9v-9.7l-8.4-4.9l-8.4,4.9V33.9"/>
<path class="st4" d="M51.2,25.2c-2.2,0-4,1.8-4,4c0,2.2,1.8,4,4,4c2.2,0,4-1.8,4-4C55.2,27,53.4,25.2,51.2,25.2"/>
<path class="st5" d="M51.2,33.2c-2.2,0-4-1.8-4-4s1.8-4,4-4s4,1.8,4,4S53.4,33.2,51.2,33.2z M51.2,25.2c-2.2,0-4,1.8-4,4s1.8,4,4,4
	s4-1.8,4-4S53.4,25.2,51.2,25.2z"/>
<g>
	<path class="st6" d="M22.1,72.1H9V39.7h21.9v-7H6.5c-0.9,0-1.8,0.2-2.6,0.7c-0.8,0.4-1.5,1.1-2,1.9c-0.6,0.8-1,1.7-1.3,2.7
		C0.2,38.9,0,40,0,41.2v29.6c0,1.1,0.2,2.2,0.5,3.2c0.3,1,0.8,1.9,1.3,2.6c0.6,0.8,1.3,1.4,2,1.8c0.8,0.5,1.7,0.7,2.6,0.7h15.6v10.8
		h2.5c0.9,0,1.8-0.2,2.6-0.7c0.8-0.5,1.5-1.1,2-1.9c0.5-0.8,1-1.6,1.3-2.6c0.3-1,0.5-2,0.5-3.1L31,51.3h-8.9V72.1z M24.1,53.3H29
		l-0.1,28.3c0,0.9-0.1,1.7-0.4,2.5c-0.2,0.8-0.6,1.5-1,2.1c-0.4,0.6-0.9,1-1.4,1.3c-0.5,0.3-1,0.4-1.6,0.4h-0.5V77.1H6.5
		c-0.6,0-1.1-0.1-1.6-0.4c-0.5-0.3-1-0.8-1.5-1.3c-0.4-0.6-0.8-1.3-1-2.1C2.1,72.5,2,71.6,2,70.7V41.2c0-0.9,0.1-1.8,0.4-2.6
		c0.3-0.8,0.6-1.5,1-2.1c0.4-0.6,0.9-1,1.4-1.3c0.5-0.3,1.1-0.4,1.6-0.4h22.4v3H7v36.4h17.1V53.3z"/>
	<path class="st6" d="M47.9,46.5h-9v24.2c0,1.1,0.2,2.2,0.5,3.2c0.3,1,0.8,1.9,1.4,2.7c0.6,0.8,1.3,1.4,2.1,1.9
		c0.8,0.5,1.7,0.7,2.7,0.7h2.6c0.8,0,1.5-0.2,2.3-0.5c0.7-0.3,1.3-0.7,1.9-1.3c0.5-0.5,1-1.2,1.3-1.9c0.4-0.7,0.6-1.5,0.6-2.3
		l0.1-1.1h-6.4V46.5z M52,74.1c-0.1,0.2-0.1,0.3-0.2,0.5c-0.3,0.5-0.6,1-0.9,1.3c-0.4,0.4-0.8,0.7-1.3,0.9c-0.5,0.2-0.9,0.3-1.4,0.3
		h-2.6c-0.6,0-1.1-0.1-1.7-0.5c-0.6-0.3-1.1-0.8-1.5-1.3c-0.4-0.6-0.8-1.3-1-2.1c-0.3-0.8-0.4-1.7-0.4-2.6V48.5h5v25.7H52z"/>
	<path class="st6" d="M101.2,54.9c0-1.1-0.2-2.2-0.5-3.2c-0.4-1-0.8-1.9-1.4-2.6c-0.6-0.8-1.4-1.4-2.2-1.8c-1.9-1-4.1-0.9-5.8,0
		c-0.9,0.4-1.7,1.1-2.5,2l-4.3,6v-0.2c0-1.1-0.2-2.2-0.5-3.2c-0.4-1-0.8-1.9-1.4-2.6c-0.6-0.8-1.4-1.4-2.2-1.8
		c-0.9-0.5-1.8-0.7-2.7-0.7c-1.1,0-2.1,0.2-3,0.7c-0.8,0.4-1.5,1.1-2.3,2L67,56.2v-9.8h-9v32.7h9V66.3l8.4-10.4v23.2h9V65.3l7.8-9.4
		v14.8c0,1.1,0.2,2.2,0.5,3.2c0.3,1,0.8,1.9,1.3,2.6c0.6,0.8,1.3,1.4,2.1,1.9c0.8,0.5,1.7,0.7,2.7,0.7h1.6c0.8,0,1.5-0.2,2.3-0.5
		c0.7-0.3,1.3-0.7,1.9-1.3c0.5-0.5,1-1.2,1.3-1.9c0.4-0.7,0.6-1.5,0.7-2.3l0.1-1.1h-5.3V54.9z M104.2,74.1c-0.1,0.2-0.1,0.3-0.2,0.5
		c-0.3,0.5-0.6,1-0.9,1.3c-0.4,0.4-0.8,0.7-1.3,0.9c-0.5,0.2-0.9,0.3-1.4,0.3h-1.6c-0.6,0-1.1-0.1-1.7-0.5c-0.5-0.3-1-0.8-1.4-1.3
		c-0.4-0.6-0.8-1.3-1-2.1c-0.3-0.8-0.4-1.7-0.4-2.6V50.3L82.4,64.6v12.5h-5V50.3L65,65.6v11.5h-5V48.5h5v13.8l8.9-11.9
		c0.5-0.6,1.1-1.1,1.7-1.5c0.5-0.3,1.2-0.4,2-0.4c0.6,0,1.2,0.2,1.8,0.5c0.6,0.3,1.1,0.8,1.6,1.3c0.5,0.6,0.8,1.3,1.1,2.1
		c0.3,0.8,0.4,1.6,0.4,2.6v6.4l7.9-10.9c0.5-0.6,1.1-1.1,1.8-1.4c1.1-0.6,2.6-0.7,3.9,0c0.6,0.3,1.1,0.8,1.6,1.3
		c0.5,0.6,0.8,1.3,1.1,2.1c0.3,0.8,0.4,1.6,0.4,2.6v19.2H104.2z"/>
	<path class="st6" d="M154.4,54.9c0-1.1-0.2-2.2-0.5-3.2c-0.4-1-0.8-1.9-1.4-2.6c-0.6-0.8-1.3-1.4-2.2-1.8c-1.9-1-4.1-0.9-5.8,0
		c-0.9,0.4-1.7,1.1-2.5,2l-4.3,6v-0.2c0-1.1-0.2-2.2-0.5-3.2c-0.4-1-0.8-1.9-1.4-2.6c-0.6-0.8-1.4-1.4-2.2-1.8
		c-0.9-0.5-1.8-0.7-2.7-0.7c-1.1,0-2.1,0.2-3,0.7c-0.8,0.4-1.5,1.1-2.3,2l-5.3,7.1v-9.8h-9v32.7h9V66.3l8.4-10.4v23.2h9V65.3
		l7.8-9.4v14.8c0,1.1,0.2,2.2,0.5,3.2c0.3,1,0.8,1.9,1.3,2.6c0.6,0.8,1.3,1.4,2.1,1.9c0.8,0.5,1.7,0.7,2.7,0.7h1.6
		c0.8,0,1.5-0.2,2.3-0.5c0.7-0.3,1.3-0.7,1.9-1.3c0.5-0.5,1-1.2,1.3-1.9s0.6-1.5,0.7-2.3l0.1-1.1h-5.3V54.9z M157.4,74.1
		c-0.1,0.2-0.1,0.3-0.2,0.5c-0.3,0.5-0.6,1-0.9,1.3c-0.4,0.4-0.8,0.7-1.3,0.9c-0.5,0.2-0.9,0.3-1.4,0.3h-1.6c-0.6,0-1.1-0.1-1.7-0.5
		c-0.6-0.3-1-0.8-1.4-1.3c-0.4-0.6-0.8-1.3-1-2.1c-0.3-0.8-0.4-1.7-0.4-2.6V50.3l-11.8,14.3v12.5h-5V50.3l-12.4,15.4v11.5h-5V48.5h5
		v13.8l8.9-11.9c0.5-0.6,1.1-1.1,1.7-1.5c0.5-0.3,1.2-0.4,2-0.4c0.6,0,1.2,0.2,1.8,0.5c0.6,0.3,1.1,0.8,1.6,1.3
		c0.5,0.6,0.8,1.3,1.1,2.1c0.3,0.8,0.4,1.6,0.4,2.6v6.4l7.9-10.9c0.5-0.6,1.1-1.1,1.8-1.4c1.1-0.6,2.6-0.7,3.9,0
		c0.6,0.3,1.1,0.8,1.6,1.3c0.5,0.6,0.8,1.3,1.1,2.1c0.3,0.8,0.4,1.6,0.4,2.6v19.2H157.4z"/>
	<path class="st6" d="M172.3,72.1V46.5h-9v24.2c0,1.1,0.2,2.2,0.5,3.2c0.3,1,0.8,1.9,1.4,2.7c0.6,0.8,1.3,1.4,2.1,1.9
		c0.8,0.5,1.7,0.7,2.7,0.7h2.6c0.8,0,1.5-0.2,2.3-0.5c0.7-0.3,1.3-0.7,1.9-1.3c0.5-0.5,1-1.2,1.3-1.9c0.4-0.7,0.6-1.5,0.6-2.3
		l0.1-1.1H172.3z M176.1,74.6c-0.3,0.5-0.6,1-0.9,1.3c-0.4,0.4-0.8,0.7-1.3,0.9c-0.5,0.2-0.9,0.3-1.4,0.3h-2.6
		c-0.6,0-1.1-0.1-1.7-0.5c-0.6-0.3-1.1-0.8-1.5-1.3c-0.4-0.6-0.8-1.3-1-2.1c-0.3-0.8-0.4-1.7-0.4-2.6V48.5h5v25.7h6
		C176.3,74.3,176.2,74.5,176.1,74.6z"/>
</g>
<path class="st7" d="M213.5,55.2c7,9.2,13.5,18.3,19.1,27.9c14.8,24.8,2.6,34.8-17.9,14.3c-7.8-7.8-15.2-16.1-22.2-24.9
	c-10.9,8.7-21.8,16.9-33.1,24.8c-29.2,20.4-37,10.4-11.3-14.4c9.6-9.6,20.1-18.7,31-27.8c-7-8.7-13.5-18.3-19.1-27.9
	c-14.8-24.8-2.6-34.8,17.9-14.3c7.8,7.8,15.2,16.6,22.2,24.9c10.9-8.3,21.8-16.9,33.1-24.8c29.2-20.4,37-10.4,11.3,14.4
	C234.9,36.9,224,46.5,213.5,55.2"/>
<path class="st0" d="M213.7,55.2l1.1,1.3l1.2,1.4l2.3,2.9c1.5,2,3,3.9,4.5,5.9c3,4,5.9,8.1,8.5,12.3c2.7,4.2,5.4,8.5,7.2,13.3
	c0.9,2.4,1.6,4.9,1.9,7.6c0.1,1.3,0.1,2.7-0.2,4.1c-0.3,1.4-0.9,2.9-2.1,4c-1.2,1.1-2.8,1.7-4.3,1.8c-1.5,0.1-2.9-0.1-4.2-0.5
	c-2.7-0.7-5-2-7.1-3.4c-4.3-2.8-8.1-6.4-11.5-10c-3.5-3.6-6.9-7.2-10.2-10.9c-3.3-3.8-6.5-7.6-9.6-11.5l2.5,0.3
	c-9.3,7.3-18.9,14.4-28.7,21c-2.5,1.7-4.9,3.3-7.4,4.9c-2.5,1.6-5.1,3.1-7.7,4.5c-2.7,1.4-5.4,2.7-8.3,3.6c-1.4,0.5-2.9,0.8-4.5,0.9
	c-0.4,0-0.8,0.1-1.2,0c-0.4,0-0.8-0.1-1.2-0.2c-0.4-0.1-0.8-0.3-1.2-0.5c-0.2-0.1-0.4-0.3-0.5-0.5l-0.2-0.3l-0.2-0.3
	c-0.5-0.8-0.6-1.7-0.5-2.5c0.1-0.4,0.1-0.8,0.2-1.2c0.1-0.4,0.2-0.8,0.3-1.1c0.5-1.5,1.2-2.8,2-4.1c1.6-2.6,3.4-4.9,5.3-7.2
	c3.8-4.6,8.2-8.6,12.4-12.8c8.5-8.3,17.3-16.2,26.3-23.9l-0.2,1.5c-6.3-7.7-12.2-15.8-17.5-24.3c-2.6-4.2-5.3-8.6-7.1-13.4
	c-0.9-2.4-1.6-5-1.9-7.7c-0.1-1.4-0.1-2.8,0.2-4.2c0.3-1.4,1-3,2.2-4.2c1.2-1.2,2.9-1.8,4.5-1.9c1.5-0.1,3,0.1,4.3,0.5
	c2.7,0.7,5,2,7.2,3.4c4.4,2.8,8.1,6.5,11.6,10c3.5,3.6,6.9,7.3,10.2,11c3.3,3.8,6.5,7.6,9.7,11.4l-2.9-0.3
	c9.4-7.2,18.8-14.4,28.4-21.3c4.8-3.4,9.8-6.8,15.1-9.7c2.7-1.4,5.4-2.7,8.4-3.7c1.5-0.5,3.1-0.9,4.8-1c0.4,0,0.9-0.1,1.3,0
	c0.5,0,0.9,0.1,1.4,0.3c0.5,0.1,1,0.4,1.5,0.7c0.2,0.1,0.5,0.4,0.7,0.6c0.1,0.1,0.2,0.2,0.3,0.3l0.2,0.4c0.3,0.5,0.5,1.1,0.6,1.6
	c0.1,0.5,0.1,1,0.1,1.5c-0.1,0.4-0.1,0.9-0.2,1.3c-0.1,0.4-0.2,0.8-0.3,1.2c-0.5,1.6-1.3,2.9-2.1,4.3c-1.6,2.6-3.5,5-5.5,7.3
	c-4,4.5-8.4,8.5-12.7,12.6c-4.3,4-8.8,7.9-13.4,11.7c-2.3,1.9-4.6,3.8-6.9,5.7l-3.5,2.8l-1.7,1.4L213.7,55.2 M213.3,55.1
	c0.5-0.5,1.1-1.1,1.7-1.6l1.7-1.5l3.3-3c2.2-2,4.4-4,6.6-6c4.3-4,8.6-8.1,12.8-12.3c4.2-4.2,8.4-8.3,12-12.8c1.8-2.3,3.5-4.6,5-7
	c0.7-1.2,1.3-2.5,1.7-3.7c0.1-0.3,0.2-0.6,0.2-0.9c0.1-0.3,0.1-0.6,0.1-0.9c0-0.5-0.1-1-0.2-1.2c-0.2-0.5-1.2-0.7-2.5-0.6
	c-1.2,0.1-2.6,0.4-3.9,0.9c-2.6,0.9-5.2,2.2-7.7,3.6c-2.5,1.4-5,3-7.4,4.6c-2.4,1.7-4.8,3.4-7.2,5.1c-9.5,6.9-18.7,14.3-28.2,21.5
	l-1.6,1.2l-1.3-1.6c-3.2-3.8-6.4-7.6-9.6-11.3c-3.2-3.7-6.5-7.4-9.9-11c-1.7-1.8-3.4-3.5-5.2-5.1c-1.8-1.6-3.6-3.2-5.6-4.5
	c-2-1.3-4-2.4-6.1-3c-2.1-0.6-4.2-0.6-5.3,0.5c-0.6,0.5-1,1.3-1.2,2.3c-0.2,1-0.2,2.1-0.2,3.2c0.2,2.2,0.8,4.5,1.5,6.8
	c1.6,4.5,4,8.7,6.5,13c5.1,8.5,10.5,16.7,16.6,24.6l0.7,0.9l-0.8,0.7c-9.2,7.5-18.2,15-26.8,23.2c-4.3,4.1-8.6,8.2-12.4,12.6
	c-1.9,2.3-3.7,4.6-5.1,7.1c-0.7,1.3-1.4,2.5-1.8,3.9c-0.4,1.3-0.6,2.8,0,3.7c0.5,1,2,1.1,3.3,1c1.4-0.1,2.8-0.5,4.1-0.9
	c2.7-0.9,5.3-2.3,7.9-3.7c2.5-1.5,5-3.1,7.4-4.7c2.4-1.7,4.8-3.4,7.2-5.2c9.5-7,18.8-14.3,27.9-21.8l1.4-1.1l1.1,1.4
	c3.1,3.9,6.3,7.6,9.5,11.3c3.2,3.7,6.6,7.4,10,10.9c1.7,1.8,3.4,3.5,5.2,5.2c1.8,1.6,3.6,3.2,5.6,4.5c2,1.3,4,2.5,6.2,3.1
	c2.1,0.7,4.3,0.6,5.6-0.6c0.6-0.6,1.1-1.5,1.3-2.5c0.3-1,0.3-2.2,0.2-3.3c-0.2-2.3-0.8-4.6-1.5-6.9c-1.6-4.6-4-8.9-6.5-13.1
	c-2.5-4.3-5.1-8.5-7.9-12.6c-1.4-2.1-2.8-4.1-4.2-6.1l-2.1-3.1l-1.1-1.5C214,56.2,213.7,55.7,213.3,55.1"/>
<g>
	<g>
		<defs>
			<path id="SVGID_1_" d="M193.4,54.3l-53.9,46.4c-1,0.9-1.2,2.5-0.3,3.5c0.5,0.6,1.2,0.9,1.9,0.9c0.6,0,1.2-0.2,1.6-0.6l53.8-46.3
				l-1.6-1.9l-53.8,46.3l53.8-46.3L193.4,54.3 M247.1,8.8c-0.6,0-1.2,0.2-1.6,0.6l-48.3,41.6l1.6,1.9l48.4-41.7L198.7,53l1.6,1.9
				l48.4-41.7c1-0.9,1.2-2.5,0.3-3.5C248.5,9.1,247.8,8.8,247.1,8.8"/>
		</defs>
		<clipPath id="SVGID_2_">
			<use xlink:href="#SVGID_1_"  style="overflow:visible;"/>
		</clipPath>
		<g style="clip-path:url(#SVGID_2_);">
			
				<image style="overflow:visible;" width="466" height="402" xlink:href="1EE5E6FAEF782362.jpg"  transform="matrix(0.24 0 0 0.24 138.2908 8.6098)">
			</image>
		</g>
	</g>
</g>
<linearGradient id="SVGID_3_" gradientUnits="userSpaceOnUse" x1="-18.4292" y1="110.8498" x2="-17.4292" y2="110.8498" gradientTransform="matrix(111.0035 0 0 -111.0035 2184.3262 12361.667)">
	<stop  offset="0" style="stop-color:#886F09"/>
	<stop  offset="0.1064" style="stop-color:#826A08"/>
	<stop  offset="0.5444" style="stop-color:#B79A21"/>
	<stop  offset="1" style="stop-color:#F3D03E"/>
</linearGradient>
<path class="st8" d="M194.9,56.2l-53.8,46.3L194.9,56.2 M247.1,11.3L198.7,53L247.1,11.3"/>
<linearGradient id="SVGID_4_" gradientUnits="userSpaceOnUse" x1="-18.4292" y1="110.8498" x2="-17.4292" y2="110.8498" gradientTransform="matrix(80.1486 0 0 -80.1486 1633.2198 8938.3203)">
	<stop  offset="0" style="stop-color:#F3D040"/>
	<stop  offset="0.2585" style="stop-color:#EECB3A"/>
	<stop  offset="0.6155" style="stop-color:#E0BC28"/>
	<stop  offset="1" style="stop-color:#CBA60D"/>
</linearGradient>
<path class="st9" d="M200.3,54.9l-1.9,1.6l35.4,43.1l-35.4-43.1l-1.9,1.6l35.3,43c0.5,0.6,1.2,0.9,1.9,0.9c0.6,0,1.1-0.2,1.6-0.6
	c1.1-0.9,1.2-2.5,0.3-3.5L200.3,54.9 M158.6,5.6c-0.6,0-1.1,0.2-1.6,0.6c-1.1,0.9-1.2,2.5-0.3,3.5l36.6,44.6l1.9-1.6L158.6,8.1
	l36.6,44.6l1.9-1.6L160.6,6.5C160.1,5.9,159.4,5.6,158.6,5.6"/>
<g>
	<defs>
		<path id="SVGID_5_" d="M196.8,54.6l-1.9,1.6l1.6,1.9l1.9-1.6L196.8,54.6 M198.7,53l-1.9,1.6l1.6,1.9l1.9-1.6L198.7,53 M195.2,52.7
			l-1.9,1.6l1.6,1.9l1.9-1.6L195.2,52.7 M197.1,51.1l-1.9,1.6l1.6,1.9l1.9-1.6L197.1,51.1"/>
	</defs>
	<clipPath id="SVGID_6_">
		<use xlink:href="#SVGID_5_"  style="overflow:visible;"/>
	</clipPath>
	<g style="clip-path:url(#SVGID_6_);">
		
			<image style="overflow:visible;" width="32" height="33" xlink:href="1EE5E6FAEF782366.jpg"  transform="matrix(0.24 0 0 -0.24 193.0108 58.5298)">
		</image>
	</g>
</g>
<g>
	<defs>
		<path id="SVGID_7_" d="M196.8,54.6l-1.9,1.6L196.8,54.6 M198.7,53l-1.9,1.6L198.7,53"/>
	</defs>
	<clipPath id="SVGID_8_">
		<use xlink:href="#SVGID_7_"  style="overflow:visible;"/>
	</clipPath>
	<g style="clip-path:url(#SVGID_8_);">
		
			<image style="overflow:visible;" width="18" height="17" xlink:href="1EE5E6FAEF782361.jpg"  transform="matrix(0.24 0 0 -0.24 194.6908 56.6098)">
		</image>
	</g>
</g>
<linearGradient id="SVGID_9_" gradientUnits="userSpaceOnUse" x1="-18.4292" y1="110.8498" x2="-17.4292" y2="110.8498" gradientTransform="matrix(80.1486 0 0 -80.1486 1633.2198 8938.3203)">
	<stop  offset="0" style="stop-color:#B9960C"/>
	<stop  offset="0.3498" style="stop-color:#9A7D0A"/>
	<stop  offset="1" style="stop-color:#645006"/>
</linearGradient>
<path class="st10" d="M198.4,56.5L198.4,56.5l35.4,43.1L198.4,56.5 M158.6,8.1l36.6,44.6L158.6,8.1"/>
<g>
	<defs>
		<path id="SVGID_10_" d="M196.8,54.6L196.8,54.6l1.6,1.9L196.8,54.6 M195.2,52.7L195.2,52.7l1.6,1.9L195.2,52.7"/>
	</defs>
	<clipPath id="SVGID_11_">
		<use xlink:href="#SVGID_10_"  style="overflow:visible;"/>
	</clipPath>
	<g style="clip-path:url(#SVGID_11_);">
		
			<image style="overflow:visible;" width="16" height="19" xlink:href="1EE5E6FAEF782363.jpg"  transform="matrix(0.24 0 0 -0.24 194.9308 56.8498)">
		</image>
	</g>
</g>
<g>
	<defs>
		<line id="SVGID_12_" x1="196.8" y1="54.6" x2="196.8" y2="54.6"/>
	</defs>
	<clipPath id="SVGID_13_">
		<use xlink:href="#SVGID_12_"  style="overflow:visible;"/>
	</clipPath>
	<g style="clip-path:url(#SVGID_13_);">
		
			<image style="overflow:visible;" width="3" height="3" xlink:href="1EE5E6FAEF782360.jpg"  transform="matrix(0.24 0 0 4.8639 196.3708 48.2482)">
		</image>
	</g>
</g>
<path class="st0" d="M133.7,89.6H43c-1.7,0-3-1.4-3-3s1.4-3,3-3h90.8c1.7,0,3,1.4,3,3S135.4,89.6,133.7,89.6z"/>
<path class="st6" d="M133.7,90.6H43c-2.2,0-4-1.8-4-4c0-2.2,1.8-4,4-4h90.8c2.2,0,4,1.8,4,4C137.8,88.7,136,90.6,133.7,90.6z
	 M43,84.5c-1.1,0-2,0.9-2,2c0,1.1,0.9,2,2,2h90.8c1.1,0,2-0.9,2-2c0-1.1-0.9-2-2-2H43z"/>
</svg>
