<?xml version="1.0" encoding="utf-8"?>
<!-- Generator: Adobe Illustrator 24.2.3, SVG Export Plug-In . SVG Version: 6.00 Build 0)  -->
<svg version="1.1" id="Laag_1"
	xmlns="http://www.w3.org/2000/svg"
	xmlns:xlink="http://www.w3.org/1999/xlink" x="0px" y="0px" viewBox="0 0 1081 259" style="enable-background:new 0 0 1081 259;" xml:space="preserve">
	<style type="text/css">
	.st0{fill:#666666;stroke:#4D4D4D;stroke-width:7;stroke-miterlimit:10;}
	.st1{fill:#FFCC00;stroke:#4D4D4D;stroke-width:7;stroke-linejoin:round;stroke-miterlimit:10;}
	.st2{fill:#FFCC00;}
	.st3{fill:#656565;stroke:#4D4D4D;stroke-width:2;stroke-miterlimit:10;}
	.st4{fill:#F8E491;stroke:#F2F2F2;stroke-width:2;stroke-linecap:round;stroke-linejoin:round;stroke-miterlimit:10;}
	.st5{fill:#FFFFFF;stroke:#CCCCCC;stroke-width:2;stroke-miterlimit:10;}
	.st6{fill:#FFCC00;stroke:#4D4D4D;stroke-width:7;stroke-miterlimit:10;}
	</style>
	<path class="st0" d="M231.8,195.3h-49.4c-40,0-72.2-32.4-72.2-72.4c0-39.8,32.2-72.2,72.2-72.2h49.4c5.4,0,9.8,4.4,9.8,9.8v16.6
	c0,5.4-4.4,9.8-9.8,9.8h-85.6c-3.6,0-6.4,3-6.4,6.6c0,1.4,0.4,2.8,1.2,3.8l45.6,81.6c1,2,3.2,3.2,5.6,3.2c3.6,0,6.8-3,6.8-6.6v-49.2
	c0-5.4,4.4-9.8,9.8-9.8h23c5.4,0,9.8,4.4,9.8,9.8v59C241.6,190.7,237.2,195.3,231.8,195.3z"/>
	<path class="st0" d="M310,93.5h-29.6c-5.4,0-9.8,4.4-9.8,9.8v82.2c0,5.4,4.4,9.8,9.8,9.8H310c5.4,0,9.8-4.4,9.8-9.8v-82.2
	C319.8,97.9,315.4,93.5,310,93.5z"/>
	<path class="st0" d="M523,195.3h-29.4c-5.4,0-10-4.4-10-9.8V96.9c0-3.6-3-6.6-6.6-6.6c-1.2,0-2.8,0.6-5,2l-31,18.6
	c-3.2,1.8-4.2,5.8-2.4,9l34,60.8c0.8,1.4,1.2,3,1.2,4.8c0,5.4-4.4,9.8-9.8,9.8h-39.4c-5.4,0-9.8-4.4-9.8-9.8V96.9
	c0-3.6-3-6.6-6.6-6.6c-1.2,0-2.8,0.6-5.4,2.2L372,110.9c-3.2,1.8-4.2,5.8-2.4,9l34,60.8c0.8,1.4,1.4,3,1.4,4.8c0,5.4-4.6,9.8-10,9.8
	h-39.2c-5.4,0-10-4.4-10-9.8V86.9c0-5.4,4.4-9.8,9.8-9.8H487c25.4,0,46,20.6,46,46v62.4C533,190.9,528.4,195.3,523,195.3z"/>
	<path class="st0" d="M735.2,195.3h-29.4c-5.4,0-10-4.4-10-9.8V96.9c0-3.6-3-6.6-6.6-6.6c-1.2,0-2.8,0.6-5,2l-31,18.6
	c-3.2,1.8-4.2,5.8-2.4,9l34,60.8c0.8,1.4,1.2,3,1.2,4.8c0,5.4-4.4,9.8-9.8,9.8h-39.4c-5.4,0-9.8-4.4-9.8-9.8V96.9
	c0-3.6-3-6.6-6.6-6.6c-1.2,0-2.8,0.6-5.4,2.2l-30.8,18.4c-3.2,1.8-4.2,5.8-2.4,9l34,60.8c0.8,1.4,1.4,3,1.4,4.8
	c0,5.4-4.6,9.8-10,9.8H568c-5.4,0-10-4.4-10-9.8V86.9c0-5.4,4.4-9.8,9.8-9.8h131.4c25.4,0,46,20.6,46,46v62.4
	C745.2,190.9,740.6,195.3,735.2,195.3z"/>
	<path class="st0" d="M809.6,195.3H780c-5.4,0-9.8-4.4-9.8-9.8v-82.2c0-5.4,4.4-9.8,9.8-9.8h29.6c5.4,0,9.8,4.4,9.8,9.8v82.2
	C819.4,190.9,815,195.3,809.6,195.3z M799.6,83.7c-10.8,0-19.6-9-19.6-19.8s8.8-19.6,19.6-19.6s19.8,8.8,19.8,19.6
	S810.4,83.7,799.6,83.7z"/>
	<path class="st0" d="M962.2,195.3h-32.8c-5.4,0-9.8-4.4-9.8-9.8v-29.4c0-3.6-3-6.6-6.6-6.6h-23.2c-3.6,0-6.4,3-6.4,6.6
	c0,1.2,0.2,2.8,1.8,5.2l13,19c1,1.4,1.4,3.2,1.4,5.2c0,5.4-4.4,9.8-9.8,9.8h-42.6c-5.4,0-9.8-4.4-9.8-9.8c0-2.8,1.4-4.8,2.8-7
	l23.8-37.2c1-1.4,1.4-3.4,1.4-5.2c0-1.8-0.4-3.4-1.4-4.8l-25.2-39.4c-1-1.4-1.4-3.2-1.4-5c0-5.4,4.4-9.8,9.8-9.8H880
	c5.4,0,9.8,4.6,9.8,10v29.2c0,3.6,3,6.6,6.6,6.6h23.2c3.6,0,6.6-3,6.6-6.6c0-1.2-0.6-2.8-1.8-4.6l-13.2-19.4c-1-1.4-1.4-3.2-1.4-5.2
	c0-5.4,4.4-10,9.8-10h42.6c5.4,0,9.8,4.4,9.8,9.8c0,1.8-0.2,3.6-1.2,5l-25.4,39.4c-1,1.4-1.4,3-1.4,4.8c0,1.8,0.4,3.8,1.4,5.2
	l23.8,37.2c1.4,2.2,2.8,4.2,2.8,7C972,190.9,967.6,195.3,962.2,195.3z"/>
	<path class="st1" d="M92.5,83.1h-0.1c-2.2,0-4.4,0.6-6.2,1.6l-69.2,39.6c-4,2.2-6.6,6.4-6.6,11.2c0,4.8,2.6,9.2,6.6,11.4l69.2,39.8
	c1.8,1,4,1.4,6.2,1.4h0.1v-27.8l-46.1-24.6L92.5,111V83.1z"/>
	<path class="st2" d="M302,25.2c16.2,0,29.4,13.2,29.4,29.4S318.2,84,302,84c-16.2,0-29.4-13.2-29.4-29.4
	C272.6,38.4,285.8,25.2,302,25.2L302,25.2z"/>
	<path class="st3" d="M302,23.2c-17.4,0-31.4,14-31.4,31.4S284.8,86,302,86c17.2,0,31.4-14,31.4-31.4S319.4,23.2,302,23.2z M302,82
	c-15.2,0-27.4-12.4-27.4-27.4c0-15.2,12.4-27.4,27.4-27.4s27.2,12.4,27.4,27.4C329.4,69.8,317.2,82,302,82z"/>
	<path class="st4" d="M302.6,47.2c-4.4,0-8,3.6-8,8c0,4.4,3.6,8,8,8c4.4,0,8-3.6,8-8C310.6,50.8,307,47.2,302.6,47.2z M302.4,35.6
	l-16.8,9.8v19.4l16.8,9.8l16.8-9.8V45.4L302.4,35.6z"/>
	<path class="st5" d="M302.6,47.2c-4.4,0-8,3.6-8,8s3.6,8,8,8c4.4,0,8-3.6,8-8S307,47.2,302.6,47.2L302.6,47.2z"/>
	<path class="st1" d="M990.5,111l46.1,24.7l-46.1,24.6v27.8h0.1c2.2,0,4.4-0.4,6.2-1.4l69.2-39.8c4-2.2,6.6-6.6,6.6-11.4
	c0-4.8-2.6-9-6.6-11.2l-69.2-39.6c-1.8-1-4-1.6-6.2-1.6h-0.1V111z"/>
	<path class="st6" d="M953.4,9c5.1,0,7.8,4.5,6.1,9.9l-23.4,74l-24.8,78.3l-23.2,73.5c-0.9,2.9-3.4,4.9-6.1,4.9h-20.4
	c-4.5,0-7.6-5.1-6.1-9.9l30-95l11.7-37.1l29.6-93.7C927.8,11,930.2,9,933,9H953.4z"/>
</svg>
