<?xml version="1.0" encoding="utf-8"?>
<!-- Generator: Adobe Illustrator 24.2.3, SVG Export Plug-In . SVG Version: 6.00 Build 0)  -->
<svg version="1.1" id="Laag_1"
	xmlns="http://www.w3.org/2000/svg"
	xmlns:xlink="http://www.w3.org/1999/xlink" x="0px" y="0px" viewBox="0 0 67 67" style="enable-background:new 0 0 67 67;" xml:space="preserve">
	<style type="text/css">
	.st0{fill:#FFCC00;}
	.st1{fill:#656565;stroke:#4D4D4D;stroke-width:2;stroke-miterlimit:10;}
	.st2{fill:#F8E491;stroke:#F2F2F2;stroke-width:2;stroke-linecap:round;stroke-linejoin:round;stroke-miterlimit:10;}
	.st3{fill:#FFFFFF;stroke:#CCCCCC;stroke-width:2;stroke-miterlimit:10;}
	</style>
	<path class="st0" d="M33.5,4.4c16.2,0,29.4,13.2,29.4,29.4S49.7,63.2,33.5,63.2S4.1,50,4.1,33.8C4.1,17.6,17.3,4.4,33.5,4.4
	L33.5,4.4z"/>
	<path class="st1" d="M33.5,2.4c-17.4,0-31.4,14-31.4,31.4s14.2,31.4,31.4,31.4c17.2,0,31.4-14,31.4-31.4S50.9,2.4,33.5,2.4z
	 M33.5,61.2c-15.2,0-27.4-12.4-27.4-27.4c0-15.2,12.4-27.4,27.4-27.4s27.2,12.4,27.4,27.4C60.9,49,48.7,61.2,33.5,61.2z"/>
	<path class="st2" d="M34.1,26.4c-4.4,0-8,3.6-8,8c0,4.4,3.6,8,8,8c4.4,0,8-3.6,8-8C42.1,30,38.5,26.4,34.1,26.4z M33.9,14.8
	l-16.8,9.8V44l16.8,9.8L50.7,44V24.6L33.9,14.8z"/>
	<path class="st3" d="M34.1,26.4c-4.4,0-8,3.6-8,8s3.6,8,8,8s8-3.6,8-8S38.5,26.4,34.1,26.4L34.1,26.4z"/>
</svg>
