<?xml version="1.0" encoding="utf-8"?>
<!-- Generator: Adobe Illustrator 23.1.1, SVG Export Plug-In . SVG Version: 6.00 Build 0)  -->
<svg version="1.1" id="Laag_1" 
    xmlns:sketchjs="https://sketch.io/dtd/" 
    xmlns="http://www.w3.org/2000/svg" 
    xmlns:xlink="http://www.w3.org/1999/xlink" x="0px" y="0px" viewBox="0 0 31.4 31.4" style="enable-background:new 0 0 31.4 31.4;" xml:space="preserve">
    <style type="text/css">
	.st0{fill:#F0C410;}
	.st1{fill:#656565;}
	.st2{fill:#F8E491;}
	.st3{fill:#FFFFFF;}
	.st4{fill:#FEFAE9;}
	.st5{fill:#999999;}
    </style>
    <path class="st0" d="M15.7,1c8.1,0,14.7,6.6,14.7,14.7s-6.6,14.7-14.7,14.7S1,23.8,1,15.7C1,7.6,7.6,1,15.7,1"/>
    <path class="st1" d="M15.7,31.4C7.1,31.4,0,24.4,0,15.7S7,0,15.7,0s15.7,7,15.7,15.7S24.3,31.4,15.7,31.4z M15.7,2
	C8.2,2,2,8.1,2,15.7c0,7.5,6.1,13.7,13.7,13.7s13.7-6.1,13.7-13.7C29.3,8.2,23.2,2,15.7,2z"/>
    <path class="st2" d="M16,20c-2.2,0-4-1.8-4-4s1.8-4,4-4s4,1.8,4,4C20,18.2,18.2,20,16,20 M15.9,6.2l-8.4,4.9v9.7l8.4,4.9l8.4-4.9
	v-9.7L15.9,6.2"/>
    <path class="st3" d="M15.9,25.9l-8.7-5v-10l8.7-5l8.7,5v10L15.9,25.9 M7.4,20.7l8.4,4.9l8.4-4.9V11l-8.4-4.9L7.4,11V20.7"/>
    <path class="st4" d="M16,12c-2.2,0-4,1.8-4,4s1.8,4,4,4s4-1.8,4-4S18.2,12,16,12"/>
    <path class="st5" d="M16,20c-2.2,0-4-1.8-4-4s1.8-4,4-4s4,1.8,4,4S18.2,20,16,20z M16,12c-2.2,0-4,1.8-4,4s1.8,4,4,4s4-1.8,4-4
	S18.2,12,16,12z"/>
</svg>