<svg id="Laag_1" data-name="Laag 1"
	xmlns="http://www.w3.org/2000/svg"
	xmlns:xlink="http://www.w3.org/1999/xlink" viewBox="0 0 1289.58 319">
	<defs>
		<style>.cls-1,.cls-2,.cls-9{fill:#ffcc03;}.cls-1,.cls-3,.cls-8,.cls-9{stroke:#333;}.cls-1,.cls-4{stroke-linejoin:round;}.cls-1,.cls-8,.cls-9{stroke-width:10px;}.cls-3,.cls-5,.cls-6,.cls-8,.cls-9{stroke-miterlimit:10;}.cls-3{stroke-width:4.5px;fill:url(#Naamloos_verloop_165);}.cls-4{fill:#feef89;stroke:#fff;stroke-linecap:round;}.cls-4,.cls-5{stroke-width:3px;}.cls-5{fill:#fff;stroke:#cdcccc;}.cls-6,.cls-8{fill:none;}.cls-6{stroke:#4e4d4d;stroke-width:7px;}.cls-7{fill:url(#Naamloos_verloop_161);}</style>
		<linearGradient id="Naamloos_verloop_165" x1="311.84" y1="43.31" x2="386.84" y2="43.31" gradientUnits="userSpaceOnUse">
			<stop offset="0" stop-color="#cdcccc"/>
			<stop offset="0.22" stop-color="#cac9c9"/>
			<stop offset="0.39" stop-color="#c0bfbf"/>
			<stop offset="0.55" stop-color="#afaeae"/>
			<stop offset="0.7" stop-color="#979696"/>
			<stop offset="0.85" stop-color="#787777"/>
			<stop offset="0.98" stop-color="#535252"/>
			<stop offset="1" stop-color="#4e4d4d"/>
		</linearGradient>
		<linearGradient id="Naamloos_verloop_161" x1="107.12" y1="151.97" x2="1178.07" y2="151.97" gradientTransform="translate(0.07 -0.31) rotate(0.03)" gradientUnits="userSpaceOnUse">
			<stop offset="0" stop-color="#cdcccc"/>
			<stop offset="1" stop-color="#4e4d4d"/>
		</linearGradient>
	</defs>
	<path class="cls-1" d="M87.79,119h-.14a12.32,12.32,0,0,0-6.25,1.75L11.65,164.12A14.15,14.15,0,0,0,5,176.39a14.54,14.54,0,0,0,6.65,12.49L81.4,232.47A12.15,12.15,0,0,0,87.65,234h.14V203.51l-46.51-26.9,46.51-27.1Z"/>
	<path class="cls-2" d="M349.35,11.37a31.94,31.94,0,1,1-31.94,31.94,32,32,0,0,1,31.94-31.94Z"/>
	<path class="cls-3" d="M348.93,5.81a37.5,37.5,0,1,0,37.91,37.08A37.41,37.41,0,0,0,348.93,5.81ZM349.7,76A32.72,32.72,0,1,1,349,10.59C366.9,10.39,381.63,25,382.06,43A32.61,32.61,0,0,1,349.7,76Z"/>
	<path class="cls-4" d="M350,35.27a8.69,8.69,0,1,0,8.7,8.69A8.71,8.71,0,0,0,350,35.27Zm.15-12.53L332,33.35v21L350.14,65l18.19-10.61v-21Z"/>
	<path class="cls-5" d="M350,35.27A8.69,8.69,0,1,0,358.69,44,8.71,8.71,0,0,0,350,35.27Z"/>
	<path class="cls-6" d="M354.57,239.86H319.94c-3.83,0-7.22-2.44-9.13-6.1l-46.06-89.87c-1.27-2.43-3.4-4.14-5.95-4.14-3.82,0-7,3.65-7,8l0,84c0,6.57-4.68,11.93-10.42,11.92-3.82,0-7.22-2.43-9.13-6.09L183,144.08c-1.27-2.43-3.39-4.38-6.16-4.38-3.82,0-7,3.65-7,8l0,79.87c0,6.57-4.89,12.17-10.63,12.17l-41.63,0c-5.74,0-10.41-5.61-10.41-12.18a14,14,0,0,1,1.49-6.08L187,65.92a10.31,10.31,0,0,1,9.13-6.08,10,10,0,0,1,8.92,6.09l23.77,47.49c2.55,5.12,4.89,6.34,7.22,6.34,2.55,0,4.68-1.46,7.44-6.82l23.6-47a10.33,10.33,0,0,1,9.14-6.08c3.83,0,7.22,2.44,9.13,6.09l78.32,155.88a12.85,12.85,0,0,1,1.48,5.84C365.19,234.27,360.3,239.87,354.57,239.86Z"/>
	<path class="cls-6" d="M492.93,114,457.86,182.5c-.85,1.71-1.91,3.41-1.91,5.61,0,4.39,3,7.8,8.7,7.81h15.71c5.74,0,10.4,5.62,10.4,12.2v19.62c0,6.58-4.67,12.19-10.4,12.18l-52.17,0c-34.57,0-62.77-32.2-62.75-71.91s28.24-72.11,62.82-72.09l55.56,0c5.73,0,10.4,5.38,10.4,12A14,14,0,0,1,492.93,114ZM437.8,132.11c0-4.39-3-8-6.78-8-2.76,0-4.67,1.7-7.21,6.81l-24.19,48.94c-1.48,2.92-3.61,6.57-3.61,8.27,0,4.38,3.18,7.79,8.48,7.8h25c5.3,0,8.27-3.41,8.27-7.79Z"/>
	<path class="cls-6" d="M627.38,240H596.13c-5.72,0-10.38-5.36-10.38-11.94l0-107.87c0-4.38-3.17-7.79-7-7.79-1.27,0-3,.72-5.09,2.18l-33.29,22.88c-3.39,2.19-4.45,6.81-2.54,10.71l36.21,74a13.1,13.1,0,0,1,1.27,5.85c0,6.57-4.67,11.93-10.4,11.92l-41.65,0c-5.71,0-10.57-5.36-10.57-11.94l.06-119.88c0-6.58,4.66-12.18,10.37-12.18l66,0C616,96,637.8,121.09,637.79,152l0,76C637.75,234.64,633.09,240,627.38,240Z"/>
	<path class="cls-6" d="M783.93,114.11l-35.07,68.53c-.85,1.7-1.91,3.41-1.91,5.61,0,4.39,3,7.8,8.7,7.8h15.71c5.74,0,10.4,5.62,10.4,12.2v19.62c0,6.58-4.67,12.18-10.4,12.18l-52.17,0c-34.57,0-62.77-32.2-62.75-71.91S684.67,96,719.25,96l55.56,0c5.73,0,10.4,5.37,10.4,12A14,14,0,0,1,783.93,114.11ZM729.8,132.25c0-4.39-3-8-6.78-8-2.76,0-4.67,1.7-7.21,6.81L691.62,180c-1.48,2.92-3.61,6.57-3.61,8.27,0,4.38,3.18,7.79,8.48,7.8h25c5.3,0,8.27-3.41,8.27-7.79Z"/>
	<path class="cls-6" d="M881.79,138.36l-22.41,14.26c-2.11,1.45-3.59,4.11-3.6,10.64l0,64.91c0,6.57-4.65,11.93-10.36,11.93l-31.29,0c-5.7,0-10.35-5.36-10.35-11.94L803.81,112c0-26.37,18.62-47.88,41.66-47.87h29.6c7.4,0,12,5.81,12,12.34,0,4.36-2.12,8.47-5.29,10.4l-22.41,14a9,9,0,0,0-3.6,7.25c0,4.35,3.17,8,8.87,8h12.05c5.71,0,10.36,5.33,10.35,11.86C887.08,132.32,885,136.43,881.79,138.36Z"/>
	<path class="cls-6" d="M1023.93,114.23l-35.07,68.52c-.85,1.71-1.91,3.41-1.91,5.61,0,4.39,3,7.81,8.7,7.81h15.71c5.74,0,10.4,5.61,10.4,12.2V228c0,6.58-4.67,12.18-10.4,12.18l-52.17,0c-34.58,0-62.77-32.19-62.75-71.91s28.24-72.11,62.82-72.09l55.56,0c5.73,0,10.4,5.37,10.4,11.95A14,14,0,0,1,1023.93,114.23ZM968.8,132.36c0-4.38-3-8-6.78-8-2.76,0-4.67,1.7-7.21,6.82l-24.19,48.93c-1.49,2.92-3.61,6.57-3.61,8.27,0,4.39,3.18,7.8,8.48,7.8h25c5.3,0,8.27-3.4,8.27-7.79Z"/>
	<path class="cls-6" d="M1167.64,240.25l-34.46,0c-5.75,0-10.43-5.38-10.43-12l0-35.94c0-4.4-3.19-8.07-7-8.08h-24.7c-3.83,0-6.81,3.67-6.81,8.07a11.88,11.88,0,0,0,1.91,6.36L1100,221.88a11.93,11.93,0,0,1,1.48,6.35c0,6.61-4.69,12-10.43,12l-45.28,0c-5.72,0-10.38-5.36-10.38-11.94,0-3.41,1.49-5.85,3-8.53l25.26-45.31a12.53,12.53,0,0,0,1.49-6.33,10.78,10.78,0,0,0-1.48-5.85l-26.7-48a11.58,11.58,0,0,1-1.48-6.1c0-6.57,4.67-11.93,10.39-11.93l34.57,0c5.74,0,10.42,5.63,10.42,12.23l0,35.7c0,4.41,3.19,8.07,7,8.08h24.7c3.83,0,7-3.67,7-8.07a12,12,0,0,0-1.92-5.62l-14-23.73a12,12,0,0,1-1.48-6.36c0-6.6,4.69-12.22,10.43-12.22l45.18,0c5.73,0,10.39,5.37,10.39,11.94a11.62,11.62,0,0,1-1.28,6.09l-27,48a10.88,10.88,0,0,0-1.49,5.85,12.59,12.59,0,0,0,1.49,6.34l25.21,45.33c1.49,2.68,3,5.11,3,8.52C1178,234.89,1173.37,240.25,1167.64,240.25Z"/>
	<path class="cls-7" d="M354.57,239.86H319.94c-3.83,0-7.22-2.44-9.13-6.1l-46.06-89.87c-1.27-2.43-3.4-4.14-5.95-4.14-3.82,0-7,3.65-7,8l0,84c0,6.57-4.68,11.93-10.42,11.92-3.82,0-7.22-2.43-9.13-6.09L183,144.08c-1.27-2.43-3.39-4.38-6.16-4.38-3.82,0-7,3.65-7,8l0,79.87c0,6.57-4.89,12.17-10.63,12.17l-41.63,0c-5.74,0-10.41-5.61-10.41-12.18a14,14,0,0,1,1.49-6.08L187,65.92a10.31,10.31,0,0,1,9.13-6.08,10,10,0,0,1,8.92,6.09l23.77,47.49c2.55,5.12,4.89,6.34,7.22,6.34,2.55,0,4.68-1.46,7.44-6.82l23.6-47a10.33,10.33,0,0,1,9.14-6.08c3.83,0,7.22,2.44,9.13,6.09l78.32,155.88a12.85,12.85,0,0,1,1.48,5.84C365.19,234.27,360.3,239.87,354.57,239.86Z"/>
	<path class="cls-7" d="M492.93,114,457.86,182.5c-.85,1.71-1.91,3.41-1.91,5.61,0,4.39,3,7.8,8.7,7.81h15.71c5.74,0,10.4,5.62,10.4,12.2v19.62c0,6.58-4.67,12.19-10.4,12.18l-52.17,0c-34.57,0-62.77-32.2-62.75-71.91s28.24-72.11,62.82-72.09l55.56,0c5.73,0,10.4,5.38,10.4,12A14,14,0,0,1,492.93,114ZM437.8,132.11c0-4.39-3-8-6.78-8-2.76,0-4.67,1.7-7.21,6.81l-24.19,48.94c-1.48,2.92-3.61,6.57-3.61,8.27,0,4.38,3.18,7.79,8.48,7.8h25c5.3,0,8.27-3.41,8.27-7.79Z"/>
	<path class="cls-7" d="M627.38,240H596.13c-5.72,0-10.38-5.36-10.38-11.94l0-107.87c0-4.38-3.17-7.79-7-7.79-1.27,0-3,.72-5.09,2.18l-33.29,22.88c-3.39,2.19-4.45,6.81-2.54,10.71l36.21,74a13.1,13.1,0,0,1,1.27,5.85c0,6.57-4.67,11.93-10.4,11.92l-41.65,0c-5.71,0-10.57-5.36-10.57-11.94l.06-119.88c0-6.58,4.66-12.18,10.37-12.18l66,0C616,96,637.8,121.09,637.79,152l0,76C637.75,234.64,633.09,240,627.38,240Z"/>
	<path class="cls-7" d="M783.93,114.11l-35.07,68.53c-.85,1.7-1.91,3.41-1.91,5.61,0,4.39,3,7.8,8.7,7.8h15.71c5.74,0,10.4,5.62,10.4,12.2v19.62c0,6.58-4.67,12.18-10.4,12.18l-52.17,0c-34.57,0-62.77-32.2-62.75-71.91S684.67,96,719.25,96l55.56,0c5.73,0,10.4,5.37,10.4,12A14,14,0,0,1,783.93,114.11ZM729.8,132.25c0-4.39-3-8-6.78-8-2.76,0-4.67,1.7-7.21,6.81L691.62,180c-1.48,2.92-3.61,6.57-3.61,8.27,0,4.38,3.18,7.79,8.48,7.8h25c5.3,0,8.27-3.41,8.27-7.79Z"/>
	<path class="cls-7" d="M881.79,138.36l-22.41,14.26c-2.11,1.45-3.59,4.11-3.6,10.64l0,64.91c0,6.57-4.65,11.93-10.36,11.93l-31.29,0c-5.7,0-10.35-5.36-10.35-11.94L803.81,112c0-26.37,18.62-47.88,41.66-47.87h29.6c7.4,0,12,5.81,12,12.34,0,4.36-2.12,8.47-5.29,10.4l-22.41,14a9,9,0,0,0-3.6,7.25c0,4.35,3.17,8,8.87,8h12.05c5.71,0,10.36,5.33,10.35,11.86C887.08,132.32,885,136.43,881.79,138.36Z"/>
	<path class="cls-7" d="M1023.93,114.23l-35.07,68.52c-.85,1.71-1.91,3.41-1.91,5.61,0,4.39,3,7.81,8.7,7.81h15.71c5.74,0,10.4,5.61,10.4,12.2V228c0,6.58-4.67,12.18-10.4,12.18l-52.17,0c-34.58,0-62.77-32.19-62.75-71.91s28.24-72.11,62.82-72.09l55.56,0c5.73,0,10.4,5.37,10.4,11.95A14,14,0,0,1,1023.93,114.23ZM968.8,132.36c0-4.38-3-8-6.78-8-2.76,0-4.67,1.7-7.21,6.82l-24.19,48.93c-1.49,2.92-3.61,6.57-3.61,8.27,0,4.39,3.18,7.8,8.48,7.8h25c5.3,0,8.27-3.4,8.27-7.79Z"/>
	<path class="cls-7" d="M1167.64,240.25l-34.46,0c-5.75,0-10.43-5.38-10.43-12l0-35.94c0-4.4-3.19-8.07-7-8.08h-24.7c-3.83,0-6.81,3.67-6.81,8.07a11.88,11.88,0,0,0,1.91,6.36L1100,221.88a11.93,11.93,0,0,1,1.48,6.35c0,6.61-4.69,12-10.43,12l-45.28,0c-5.72,0-10.38-5.36-10.38-11.94,0-3.41,1.49-5.85,3-8.53l25.26-45.31a12.53,12.53,0,0,0,1.49-6.33,10.78,10.78,0,0,0-1.48-5.85l-26.7-48a11.58,11.58,0,0,1-1.48-6.1c0-6.57,4.67-11.93,10.39-11.93l34.57,0c5.74,0,10.42,5.63,10.42,12.23l0,35.7c0,4.41,3.19,8.07,7,8.08h24.7c3.83,0,7-3.67,7-8.07a12,12,0,0,0-1.92-5.62l-14-23.73a12,12,0,0,1-1.48-6.36c0-6.6,4.69-12.22,10.43-12.22l45.18,0c5.73,0,10.39,5.37,10.39,11.94a11.62,11.62,0,0,1-1.28,6.09l-27,48a10.88,10.88,0,0,0-1.49,5.85,12.59,12.59,0,0,0,1.49,6.34l25.21,45.33c1.49,2.68,3,5.11,3,8.52C1178,234.89,1173.37,240.25,1167.64,240.25Z"/>
	<path class="cls-8" d="M354.57,239.86H319.94c-3.83,0-7.22-2.44-9.13-6.1l-46.06-89.87c-1.27-2.43-3.4-4.14-5.95-4.14-3.82,0-7,3.65-7,8l0,84c0,6.57-4.68,11.93-10.42,11.92-3.82,0-7.22-2.43-9.13-6.09L183,144.08c-1.27-2.43-3.39-4.38-6.16-4.38-3.82,0-7,3.65-7,8l0,79.87c0,6.57-4.89,12.17-10.63,12.17l-41.63,0c-5.74,0-10.41-5.61-10.41-12.18a14,14,0,0,1,1.49-6.08L187,65.92a10.31,10.31,0,0,1,9.13-6.08,10,10,0,0,1,8.92,6.09l23.77,47.49c2.55,5.12,4.89,6.34,7.22,6.34,2.55,0,4.68-1.46,7.44-6.82l23.6-47a10.33,10.33,0,0,1,9.14-6.08c3.83,0,7.22,2.44,9.13,6.09l78.32,155.88a12.85,12.85,0,0,1,1.48,5.84C365.19,234.27,360.3,239.87,354.57,239.86Z"/>
	<path class="cls-8" d="M492.93,114,457.86,182.5c-.85,1.71-1.91,3.41-1.91,5.61,0,4.39,3,7.8,8.7,7.81h15.71c5.74,0,10.4,5.62,10.4,12.2v19.62c0,6.58-4.67,12.19-10.4,12.18l-52.17,0c-34.57,0-62.77-32.2-62.75-71.91s28.24-72.11,62.82-72.09l55.56,0c5.73,0,10.4,5.38,10.4,12A14,14,0,0,1,492.93,114ZM437.8,132.11c0-4.39-3-8-6.78-8-2.76,0-4.67,1.7-7.21,6.81l-24.19,48.94c-1.48,2.92-3.61,6.57-3.61,8.27,0,4.38,3.18,7.79,8.48,7.8h25c5.3,0,8.27-3.41,8.27-7.79Z"/>
	<path class="cls-8" d="M627.38,240H596.13c-5.72,0-10.38-5.36-10.38-11.94l0-107.87c0-4.38-3.17-7.79-7-7.79-1.27,0-3,.72-5.09,2.18l-33.29,22.88c-3.39,2.19-4.45,6.81-2.54,10.71l36.21,74a13.1,13.1,0,0,1,1.27,5.85c0,6.57-4.67,11.93-10.4,11.92l-41.65,0c-5.71,0-10.57-5.36-10.57-11.94l.06-119.88c0-6.58,4.66-12.18,10.37-12.18l66,0C616,96,637.8,121.09,637.79,152l0,76C637.75,234.64,633.09,240,627.38,240Z"/>
	<path class="cls-8" d="M783.93,114.11l-35.07,68.53c-.85,1.7-1.91,3.41-1.91,5.61,0,4.39,3,7.8,8.7,7.8h15.71c5.74,0,10.4,5.62,10.4,12.2v19.62c0,6.58-4.67,12.18-10.4,12.18l-52.17,0c-34.57,0-62.77-32.2-62.75-71.91S684.67,96,719.25,96l55.56,0c5.73,0,10.4,5.37,10.4,12A14,14,0,0,1,783.93,114.11ZM729.8,132.25c0-4.39-3-8-6.78-8-2.76,0-4.67,1.7-7.21,6.81L691.62,180c-1.48,2.92-3.61,6.57-3.61,8.27,0,4.38,3.18,7.79,8.48,7.8h25c5.3,0,8.27-3.41,8.27-7.79Z"/>
	<path class="cls-8" d="M881.79,138.36l-22.41,14.26c-2.11,1.45-3.59,4.11-3.6,10.64l0,64.91c0,6.57-4.65,11.93-10.36,11.93l-31.29,0c-5.7,0-10.35-5.36-10.35-11.94L803.81,112c0-26.37,18.62-47.88,41.66-47.87h29.6c7.4,0,12,5.81,12,12.34,0,4.36-2.12,8.47-5.29,10.4l-22.41,14a9,9,0,0,0-3.6,7.25c0,4.35,3.17,8,8.87,8h12.05c5.71,0,10.36,5.33,10.35,11.86C887.08,132.32,885,136.43,881.79,138.36Z"/>
	<path class="cls-8" d="M1023.93,114.23l-35.07,68.52c-.85,1.71-1.91,3.41-1.91,5.61,0,4.39,3,7.81,8.7,7.81h15.71c5.74,0,10.4,5.61,10.4,12.2V228c0,6.58-4.67,12.18-10.4,12.18l-52.17,0c-34.58,0-62.77-32.19-62.75-71.91s28.24-72.11,62.82-72.09l55.56,0c5.73,0,10.4,5.37,10.4,11.95A14,14,0,0,1,1023.93,114.23ZM968.8,132.36c0-4.38-3-8-6.78-8-2.76,0-4.67,1.7-7.21,6.82l-24.19,48.93c-1.49,2.92-3.61,6.57-3.61,8.27,0,4.39,3.18,7.8,8.48,7.8h25c5.3,0,8.27-3.4,8.27-7.79Z"/>
	<path class="cls-8" d="M1167.64,240.25l-34.46,0c-5.75,0-10.43-5.38-10.43-12l0-35.94c0-4.4-3.19-8.07-7-8.08h-24.7c-3.83,0-6.81,3.67-6.81,8.07a11.88,11.88,0,0,0,1.91,6.36L1100,221.88a11.93,11.93,0,0,1,1.48,6.35c0,6.61-4.69,12-10.43,12l-45.28,0c-5.72,0-10.38-5.36-10.38-11.94,0-3.41,1.49-5.85,3-8.53l25.26-45.31a12.53,12.53,0,0,0,1.49-6.33,10.78,10.78,0,0,0-1.48-5.85l-26.7-48a11.58,11.58,0,0,1-1.48-6.1c0-6.57,4.67-11.93,10.39-11.93l34.57,0c5.74,0,10.42,5.63,10.42,12.23l0,35.7c0,4.41,3.19,8.07,7,8.08h24.7c3.83,0,7-3.67,7-8.07a12,12,0,0,0-1.92-5.62l-14-23.73a12,12,0,0,1-1.48-6.36c0-6.6,4.69-12.22,10.43-12.22l45.18,0c5.73,0,10.39,5.37,10.39,11.94a11.62,11.62,0,0,1-1.28,6.09l-27,48a10.88,10.88,0,0,0-1.49,5.85,12.59,12.59,0,0,0,1.49,6.34l25.21,45.33c1.49,2.68,3,5.11,3,8.52C1178,234.89,1173.37,240.25,1167.64,240.25Z"/>
	<path class="cls-9" d="M1175.21,5c6.51,0,10,5.72,7.82,12.72l-30,95-31.79,100.6-29.84,94.38c-1.18,3.76-4.31,6.27-7.81,6.27h-26.23c-5.76,0-9.78-6.53-7.82-12.71l38.56-122,15-47.61,38.05-120.41C1142.35,7.51,1145.48,5,1149,5Z"/>
	<path class="cls-1" d="M1201.79,150.51l46.5,27.1-46.5,26.9V235h.14a12.17,12.17,0,0,0,6.25-1.53l69.74-43.59a14.52,14.52,0,0,0,6.66-12.49,14.14,14.14,0,0,0-6.66-12.27l-69.74-43.37a12.35,12.35,0,0,0-6.25-1.75h-.14Z"/>
</svg>