<svg id="Laag_1" data-name="Laag 1"
	xmlns="http://www.w3.org/2000/svg"
	xmlns:xlink="http://www.w3.org/1999/xlink" viewBox="0 0 1352.5 1352.5">
	<defs>
		<style>.cls-1{fill:#ffcc03;}.cls-2{stroke:#333;stroke-width:72.5px;fill:url(#Naamloos_verloop_165);}.cls-2,.cls-4{stroke-miterlimit:10;}.cls-3{fill:#feef89;stroke:#fff;stroke-linecap:round;stroke-linejoin:round;}.cls-3,.cls-4{stroke-width:50px;}.cls-4{fill:#fff;stroke:#cdcccc;}</style>
		<linearGradient id="Naamloos_verloop_165" x1="36.25" y1="676.25" x2="1316.25" y2="676.25" gradientUnits="userSpaceOnUse">
			<stop offset="0" stop-color="#cdcccc"/>
			<stop offset="0.22" stop-color="#cac9c9"/>
			<stop offset="0.39" stop-color="#c0bfbf"/>
			<stop offset="0.55" stop-color="#afaeae"/>
			<stop offset="0.7" stop-color="#979696"/>
			<stop offset="0.85" stop-color="#787777"/>
			<stop offset="0.98" stop-color="#535252"/>
			<stop offset="1" stop-color="#4e4d4d"/>
		</linearGradient>
	</defs>
	<path class="cls-1" d="M676.3,131.18c300.35,0,545.08,244.73,545.08,545.08S976.65,1221.35,676.3,1221.35,131.22,976.62,131.22,676.26,376,131.18,676.3,131.18Z"/>
	<path class="cls-2" d="M669.2,36.29C314.57,40.2,32.38,328.67,36.29,683.3s296.46,636.77,647,632.91,636.82-292.38,632.91-647S1023.83,32.38,669.2,36.29Zm13.2,1198.4C372.61,1238.1,121.18,988.11,117.81,682.4,114.4,372.61,364.39,121.18,670.1,117.81s557.14,246.62,564.59,552.29C1238.1,979.89,992.19,1231.27,682.4,1234.69Z"/>
	<path class="cls-3" d="M687.37,539.05c-81.57,0-148.32,66.75-148.32,148.32S605.8,835.7,687.37,835.7,835.7,769,835.7,687.37,769,539.05,687.37,539.05Zm2.52-213.76-310.35,181V864.71l310.35,181,310.36-181V506.33Z"/>
	<path class="cls-4" d="M687.42,539.07c-81.57,0-148.32,66.74-148.32,148.32s66.75,148.32,148.32,148.32S835.75,769,835.75,687.39,769,539.07,687.42,539.07Z"/>
</svg>


